<?xml version="1.0" standalone="no"?><!DOCTYPE svg PUBLIC "-//W3C//DTD SVG 1.1//EN" "http://www.w3.org/Graphics/SVG/1.1/DTD/svg11.dtd"><svg t="1769507938396" class="icon" viewBox="0 0 1024 1024" version="1.1" xmlns="http://www.w3.org/2000/svg" p-id="7364" xmlns:xlink="http://www.w3.org/1999/xlink" width="32" height="32"><path d="M763.55416201 825.111924a19.329732 19.329732 0 0 1-1.72480701-1.36795c-11.478887-9.873032-11.062554-23.79044-7.077656-35.68566a573.349596 573.349596 0 0 1 23.79044-60.96300101c10.82465-23.79044 15.999071-47.580879 4.10385-72.79874599a49.662543 49.662543 0 0 1-3.865946-31.046523 90.403671 90.403671 0 0 0 14.869025 13.56055c16.950688 9.4567 21.6493 24.920486 22.898298 42.465935 1.011094 15.10692899-5.29337299 27.775338-13.560551 40.265319a60.963002 60.963002 0 0 0 15.10693-8.38613 102.239415 102.239415 0 0 0 31.581808-43.655457c8.921415-23.79044001 6.839751-39.848986-15.40430901-54.42063a75.77255 75.77255 0 0 1-27.18057799-34.377186c-10.051461-23.076726-10.40831701-47.164547-8.267178-71.668699 1.427426-17.129117 4.93651599-34.496138 3.152234-51.268398-2.914329-27.953767-20.340826-49.008306-40.086891-67.743277-9.75408-9.278271-20.400302-17.84283-31.819713-27.359005 19.56763699 0 32.771331 9.991985 46.748214 20.459778a93.258524 93.258524 0 0 0-21.470872-54.836964c-17.84283-20.995063-40.979032-32.236046-66.672707-39.135273-14.036359-3.746994-28.608004-5.94761-42.644363-8.445606 7.791369-6.36394301 19.68658901-11.419411 22.303537-19.448685s-3.152233-19.865017-5.233897-29.738049l-3.687518-1e-8c0 11.122031-4.401231 19.983969-14.928501 21.53034801a43.417552 43.417552 0 0 1-26.585816-2.854853c-24.801533-14.869025-48.651449-31.343904-72.263461-47.997212A84.872394 84.872394 0 0 0 481.75640401 183.602718a199.661265 199.661265 0 0 1-37.58889501 2.795377c-33.8419-1.36795-58.465006-18.199686-74.4046-47.580879-2.973805-5.471801-5.412325-11.240983-8.38613-17.426498a18.378115 18.378115 0 0 0-2.557473 2.914329c-1.308474 2.43852-2.55747199 4.936516-3.628042 7.493989-9.516176 22.422489-10.289365 46.034501-9.397223 69.884416S356.856595 240.105012 384.69141 237.904397c0.475809 0 1.011094 0.535285 1.486902 0.892141-0.773189 8.14822599-0.713713 8.267178-7.672417 9.337748a26.22896 26.22896 0 0 0-20.162397 13.144218 107.056979 107.056979 0 0 1-37.82679901 38.540512 68.397514 68.397514 0 0 0-30.57071499 50.31678 25.098914 25.098914 0 0 1-5.293373 11.300459c-14.33373999 16.950688-28.608004 33.96085301-43.655457 50.257304C221.607946 432.450717 203.884068 455.170587 178.428298 469.861184a22.71987 22.71987 0 0 0-7.791369 16.355927 384.631934 384.631934 0 0 0-0.356857 39.730034c0 13.976883 4.401231 25.812627 17.48597299 33.425568 8.980891 5.293373 17.485973 11.53836301 25.93157901 17.84283a37.35099 37.35099 0 0 1 9.635129 9.4567c10.05146099 15.582738 18.199686 18.616019 34.793518 11.003078a63.57995 63.57995 0 0 1 41.21693599-5.412325c15.40431 3.211709 22.422489-1.011094 27.83481501-15.820643 4.044375-10.943602 5.94761-22.541442 10.05146001-33.544519a23.433583 23.433583 0 0 1 7.67241699-10.17041299c8.088749-6.48289501 16.653308-12.489981 25.336819-18.14021101 2.914329-1.903235 8.02927301-4.103851 10.229889-2.854852 19.448684 11.240983 40.384271 9.932509 61.260382 7.731892C455.82482401 517.442063 469.861184 514.170878 485.503398 511.494453c-2.795377 3.687518-4.817564 6.780275-7.256084 9.397224a10.52727 10.52727 0 0 0-1.60585499 15.285357 30.927572 30.927572 0 0 1 4.10385099 15.820643c0.713713 17.84283-7.612941 32.77133099-18.437591 46.153453-24.861009 30.80861899-57.513388 51.803682-91.47424 70.89551a383.263983 383.263983 0 0 0-81.1254 57.63234 350.908985 350.908985 0 0 0-47.580879 57.691816c90.403671 81.601208 280.251379 197.995934 521.42696201 40.741128zM822.792356 934.785851l-1e-8 8.921415 5.94761001-5.055468c-1.724807-1.308474-3.80647-2.616948-5.94761-3.865947z" fill="#cbcbcb" p-id="7365"></path></svg>